<mxfile host="65bd71144e">
    <diagram id="5wr6NZFyL-wKXXVCIL8i" name="Page-1">
        <mxGraphModel dx="2698" dy="1069" grid="1" gridSize="10" guides="1" tooltips="1" connect="0" arrows="0" fold="1" page="1" pageScale="1" pageWidth="850" pageHeight="1100" background="#003300" math="0" shadow="0">
            <root>
                <mxCell id="0"/>
                <mxCell id="1" parent="0"/>
                <mxCell id="46" value="" style="rounded=0;whiteSpace=wrap;html=1;shadow=0;glass=0;labelBackgroundColor=none;sketch=0;fillStyle=auto;strokeColor=#000000;strokeWidth=0;fontSize=12;fontColor=#000000;fillColor=#F9FFA1;gradientColor=none;movable=0;resizable=0;rotatable=0;deletable=0;editable=0;connectable=0;" vertex="1" parent="1">
                    <mxGeometry x="600" y="200" width="200" height="360" as="geometry"/>
                </mxCell>
                <mxCell id="34" value="" style="rounded=1;whiteSpace=wrap;html=1;shadow=0;glass=0;labelBackgroundColor=none;sketch=0;fillStyle=auto;strokeColor=#000000;strokeWidth=0;fontSize=12;fontColor=#FFFFFF;fillColor=#F9FFA1;gradientColor=none;" vertex="1" parent="1">
                    <mxGeometry x="-812.5" y="145" width="100" height="185" as="geometry"/>
                </mxCell>
                <mxCell id="7" value="" style="rounded=1;whiteSpace=wrap;html=1;fontSize=48;labelBackgroundColor=#F9FFA1;fillColor=#f9ffa1;strokeColor=#36393d;perimeterSpacing=0;strokeWidth=0;glass=0;shadow=0;fillStyle=auto;flipH=0;flipV=1;container=0;movable=0;resizable=0;rotatable=0;deletable=0;editable=0;connectable=0;" vertex="1" parent="1">
                    <mxGeometry y="90" width="560" height="60" as="geometry"/>
                </mxCell>
                <mxCell id="2" value="&lt;font style=&quot;font-size: 48px;&quot;&gt;Project Title&lt;/font&gt;" style="text;html=1;strokeColor=none;fillColor=none;align=center;verticalAlign=middle;whiteSpace=wrap;rounded=0;fontColor=#F9FFA1;movable=0;resizable=0;rotatable=0;deletable=0;editable=0;connectable=0;" vertex="1" parent="1">
                    <mxGeometry x="40" y="10" width="760" height="70" as="geometry"/>
                </mxCell>
                <mxCell id="9" value="" style="rounded=1;whiteSpace=wrap;html=1;labelBackgroundColor=#F9FFA1;fontSize=48;fillColor=#F9FFA1;strokeColor=#000000;strokeWidth=2;movable=0;resizable=0;rotatable=0;deletable=0;editable=0;connectable=0;" vertex="1" parent="1">
                    <mxGeometry x="20" y="105" width="80" height="30" as="geometry"/>
                </mxCell>
                <mxCell id="10" value="" style="rounded=1;whiteSpace=wrap;html=1;labelBackgroundColor=#F9FFA1;fontSize=48;fontColor=#F9FFA1;fillColor=#033302;gradientColor=none;movable=0;resizable=0;rotatable=0;deletable=0;editable=0;connectable=0;" vertex="1" parent="1">
                    <mxGeometry x="130" y="105" width="80" height="30" as="geometry"/>
                </mxCell>
                <mxCell id="11" value="" style="rounded=1;whiteSpace=wrap;html=1;labelBackgroundColor=#F9FFA1;fontSize=48;fontColor=#F9FFA1;fillColor=#033302;gradientColor=none;movable=0;resizable=0;rotatable=0;deletable=0;editable=0;connectable=0;" vertex="1" parent="1">
                    <mxGeometry x="240" y="105" width="80" height="30" as="geometry"/>
                </mxCell>
                <mxCell id="12" value="" style="rounded=1;whiteSpace=wrap;html=1;labelBackgroundColor=#F9FFA1;fontSize=48;fontColor=#F9FFA1;fillColor=#033302;gradientColor=none;movable=0;resizable=0;rotatable=0;deletable=0;editable=0;connectable=0;" vertex="1" parent="1">
                    <mxGeometry x="350" y="105" width="80" height="30" as="geometry"/>
                </mxCell>
                <mxCell id="13" value="" style="rounded=1;whiteSpace=wrap;html=1;labelBackgroundColor=#F9FFA1;fontSize=48;fontColor=#F9FFA1;fillColor=#033302;gradientColor=none;movable=0;resizable=0;rotatable=0;deletable=0;editable=0;connectable=0;" vertex="1" parent="1">
                    <mxGeometry x="460" y="105" width="80" height="30" as="geometry"/>
                </mxCell>
                <mxCell id="16" value="&lt;font color=&quot;#000000&quot; style=&quot;font-size: 12px;&quot;&gt;Current Page&lt;/font&gt;" style="text;html=1;strokeColor=none;fillColor=none;align=center;verticalAlign=middle;whiteSpace=wrap;rounded=0;labelBackgroundColor=none;strokeWidth=1;fontSize=24;fontColor=#007070;movable=0;resizable=0;rotatable=0;deletable=0;editable=0;connectable=0;" vertex="1" parent="1">
                    <mxGeometry x="20" y="110" width="80" height="15" as="geometry"/>
                </mxCell>
                <mxCell id="17" value="&lt;font color=&quot;#f9ffa1&quot;&gt;1st Page&lt;/font&gt;" style="text;html=1;strokeColor=none;fillColor=none;align=center;verticalAlign=middle;whiteSpace=wrap;rounded=0;labelBackgroundColor=none;strokeWidth=1;fontSize=12;fontColor=#000000;movable=0;resizable=0;rotatable=0;deletable=0;editable=0;connectable=0;" vertex="1" parent="1">
                    <mxGeometry x="140" y="110" width="60" height="20" as="geometry"/>
                </mxCell>
                <mxCell id="18" value="&lt;div style=&quot;&quot;&gt;&lt;font color=&quot;#f9ffa1&quot;&gt;2nd Page&lt;/font&gt;&lt;/div&gt;" style="text;html=1;strokeColor=none;fillColor=none;align=center;verticalAlign=middle;whiteSpace=wrap;rounded=0;labelBackgroundColor=none;strokeWidth=1;fontSize=12;fontColor=#000000;movable=0;resizable=0;rotatable=0;deletable=0;editable=0;connectable=0;" vertex="1" parent="1">
                    <mxGeometry x="240" y="110" width="80" height="20" as="geometry"/>
                </mxCell>
                <mxCell id="19" value="&lt;div style=&quot;&quot;&gt;&lt;font color=&quot;#f9ffa1&quot;&gt;3rd Page&lt;/font&gt;&lt;/div&gt;" style="text;html=1;strokeColor=none;fillColor=none;align=center;verticalAlign=middle;whiteSpace=wrap;rounded=0;labelBackgroundColor=none;strokeWidth=1;fontSize=12;fontColor=#000000;movable=0;resizable=0;rotatable=0;deletable=0;editable=0;connectable=0;" vertex="1" parent="1">
                    <mxGeometry x="350" y="110" width="80" height="20" as="geometry"/>
                </mxCell>
                <mxCell id="20" value="&lt;div style=&quot;&quot;&gt;&lt;font color=&quot;#f9ffa1&quot;&gt;3rd Page&lt;/font&gt;&lt;/div&gt;" style="text;html=1;strokeColor=none;fillColor=none;align=center;verticalAlign=middle;whiteSpace=wrap;rounded=0;labelBackgroundColor=none;strokeWidth=1;fontSize=12;fontColor=#000000;container=0;movable=0;resizable=0;rotatable=0;deletable=0;editable=0;connectable=0;" vertex="1" parent="1">
                    <mxGeometry x="460" y="110" width="80" height="20" as="geometry">
                        <mxRectangle x="460" y="110" width="90" height="30" as="alternateBounds"/>
                    </mxGeometry>
                </mxCell>
                <mxCell id="24" value="" style="rounded=0;whiteSpace=wrap;html=1;shadow=0;glass=0;labelBackgroundColor=none;sketch=0;fillStyle=auto;strokeColor=#000000;strokeWidth=0;fontSize=12;fontColor=#F9FFA1;fillColor=#F9FFA1;gradientColor=none;movable=1;resizable=1;rotatable=1;deletable=1;editable=1;connectable=1;" vertex="1" parent="1">
                    <mxGeometry x="40" y="170" width="520" height="420" as="geometry"/>
                </mxCell>
                <mxCell id="25" value="" style="rounded=0;whiteSpace=wrap;html=1;shadow=0;glass=0;labelBackgroundColor=none;sketch=0;fillStyle=auto;strokeColor=#000000;strokeWidth=0;fontSize=12;fontColor=#F9FFA1;fillColor=none;gradientColor=none;container=0;movable=1;resizable=1;rotatable=1;deletable=1;editable=1;connectable=1;" vertex="1" parent="1">
                    <mxGeometry x="40" y="1060" width="760" height="20" as="geometry">
                        <mxRectangle x="40" y="1060" width="50" height="40" as="alternateBounds"/>
                    </mxGeometry>
                </mxCell>
                <mxCell id="26" value="&lt;font color=&quot;#b3b3b3&quot;&gt;2024 Will Standley&lt;/font&gt;" style="text;html=1;strokeColor=none;fillColor=none;align=center;verticalAlign=middle;whiteSpace=wrap;rounded=0;shadow=0;glass=0;labelBackgroundColor=none;sketch=0;fillStyle=auto;strokeWidth=0;fontSize=12;fontColor=#F9FFA1;movable=1;resizable=1;rotatable=1;deletable=1;editable=1;connectable=1;direction=west;flipH=0;flipV=1;" vertex="1" parent="1">
                    <mxGeometry x="365" y="1062.5" width="120" height="15" as="geometry"/>
                </mxCell>
                <mxCell id="27" value="" style="rounded=0;whiteSpace=wrap;html=1;shadow=0;glass=0;labelBackgroundColor=none;sketch=0;fillStyle=auto;strokeColor=#000000;strokeWidth=0;fontSize=12;fontColor=#F9FFA1;fillColor=#F9FFA1;gradientColor=none;" vertex="1" parent="1">
                    <mxGeometry x="-680" y="100" width="640" height="500" as="geometry"/>
                </mxCell>
                <mxCell id="28" value="&lt;font style=&quot;font-size: 48px;&quot;&gt;Project Title&lt;/font&gt;" style="text;html=1;strokeColor=none;fillColor=none;align=center;verticalAlign=middle;whiteSpace=wrap;rounded=0;fontColor=#F9FFA1;movable=0;resizable=0;rotatable=0;deletable=0;editable=0;connectable=0;" vertex="1" parent="1">
                    <mxGeometry x="-800" y="10" width="760" height="70" as="geometry"/>
                </mxCell>
                <mxCell id="29" value="" style="rounded=1;whiteSpace=wrap;html=1;fontSize=48;labelBackgroundColor=#F9FFA1;fillColor=#f9ffa1;strokeColor=#36393d;perimeterSpacing=0;strokeWidth=0;glass=0;shadow=0;fillStyle=auto;flipH=0;flipV=1;container=0;movable=1;resizable=1;rotatable=1;deletable=1;editable=1;connectable=1;" vertex="1" parent="1">
                    <mxGeometry x="-822.5" y="100" width="120" height="60" as="geometry"/>
                </mxCell>
                <mxCell id="30" value="" style="rounded=1;whiteSpace=wrap;html=1;labelBackgroundColor=#F9FFA1;fontSize=48;fillColor=#F9FFA1;strokeColor=#000000;strokeWidth=2;" vertex="1" parent="1">
                    <mxGeometry x="-802.5" y="115" width="80" height="30" as="geometry"/>
                </mxCell>
                <mxCell id="31" value="&lt;font style=&quot;font-size: 12px;&quot;&gt;Dropdown&amp;nbsp;&lt;/font&gt;" style="text;html=1;strokeColor=none;fillColor=none;align=center;verticalAlign=middle;whiteSpace=wrap;rounded=0;labelBackgroundColor=none;strokeWidth=1;fontSize=24;fontColor=#000000;" vertex="1" parent="1">
                    <mxGeometry x="-810" y="120" width="80" height="10" as="geometry"/>
                </mxCell>
                <mxCell id="32" value="V" style="text;html=1;strokeColor=none;fillColor=none;align=center;verticalAlign=middle;whiteSpace=wrap;rounded=0;shadow=0;glass=0;labelBackgroundColor=none;sketch=0;fillStyle=auto;strokeWidth=0;fontSize=12;fontColor=#000000;" vertex="1" parent="1">
                    <mxGeometry x="-740" y="130" width="10" height="10" as="geometry"/>
                </mxCell>
                <mxCell id="33" value="|" style="text;html=1;strokeColor=none;fillColor=none;align=center;verticalAlign=middle;whiteSpace=wrap;rounded=0;shadow=0;glass=0;labelBackgroundColor=none;sketch=0;fillStyle=auto;strokeWidth=0;fontSize=12;fontColor=#000000;" vertex="1" parent="1">
                    <mxGeometry x="-740" y="115" width="10" height="20" as="geometry"/>
                </mxCell>
                <mxCell id="35" value="" style="rounded=1;whiteSpace=wrap;html=1;labelBackgroundColor=#F9FFA1;fontSize=48;fillColor=#003300;strokeColor=#000000;strokeWidth=2;" vertex="1" parent="1">
                    <mxGeometry x="-800" y="170" width="80" height="30" as="geometry"/>
                </mxCell>
                <mxCell id="36" value="" style="rounded=1;whiteSpace=wrap;html=1;labelBackgroundColor=#F9FFA1;fontSize=48;fillColor=#003300;strokeColor=#000000;strokeWidth=2;" vertex="1" parent="1">
                    <mxGeometry x="-802.5" y="210" width="80" height="30" as="geometry"/>
                </mxCell>
                <mxCell id="37" value="" style="rounded=1;whiteSpace=wrap;html=1;labelBackgroundColor=#F9FFA1;fontSize=48;fillColor=#003300;strokeColor=#000000;strokeWidth=2;" vertex="1" parent="1">
                    <mxGeometry x="-802.5" y="250" width="80" height="30" as="geometry"/>
                </mxCell>
                <mxCell id="38" value="" style="rounded=1;whiteSpace=wrap;html=1;labelBackgroundColor=#F9FFA1;fontSize=48;fillColor=#003300;strokeColor=#000000;strokeWidth=2;" vertex="1" parent="1">
                    <mxGeometry x="-802.5" y="290" width="80" height="30" as="geometry"/>
                </mxCell>
                <mxCell id="39" value="&lt;font color=&quot;#f9ffa1&quot;&gt;1st Page&lt;/font&gt;" style="text;html=1;strokeColor=none;fillColor=none;align=center;verticalAlign=middle;whiteSpace=wrap;rounded=0;shadow=0;glass=0;labelBackgroundColor=none;sketch=0;fillStyle=auto;strokeWidth=0;fontSize=12;fontColor=#000000;" vertex="1" parent="1">
                    <mxGeometry x="-785" y="175" width="50" height="20" as="geometry"/>
                </mxCell>
                <mxCell id="40" value="&lt;font color=&quot;#f9ffa1&quot;&gt;2nd Page&lt;/font&gt;" style="text;html=1;strokeColor=none;fillColor=none;align=center;verticalAlign=middle;whiteSpace=wrap;rounded=0;shadow=0;glass=0;labelBackgroundColor=none;sketch=0;fillStyle=auto;strokeWidth=0;fontSize=12;fontColor=#000000;" vertex="1" parent="1">
                    <mxGeometry x="-792.5" y="215" width="60" height="20" as="geometry"/>
                </mxCell>
                <mxCell id="41" value="&lt;font color=&quot;#f9ffa1&quot;&gt;3rd Page&lt;/font&gt;" style="text;html=1;strokeColor=none;fillColor=none;align=center;verticalAlign=middle;whiteSpace=wrap;rounded=0;shadow=0;glass=0;labelBackgroundColor=none;sketch=0;fillStyle=auto;strokeWidth=0;fontSize=12;fontColor=#000000;" vertex="1" parent="1">
                    <mxGeometry x="-795" y="252.5" width="65" height="25" as="geometry"/>
                </mxCell>
                <mxCell id="42" value="&lt;font color=&quot;#f9ffa1&quot;&gt;4th Page&lt;/font&gt;" style="text;html=1;strokeColor=none;fillColor=none;align=center;verticalAlign=middle;whiteSpace=wrap;rounded=0;shadow=0;glass=0;labelBackgroundColor=none;sketch=0;fillStyle=auto;strokeWidth=0;fontSize=12;fontColor=#000000;" vertex="1" parent="1">
                    <mxGeometry x="-797.5" y="295" width="65" height="20" as="geometry"/>
                </mxCell>
                <mxCell id="43" value="" style="rounded=0;whiteSpace=wrap;html=1;shadow=0;glass=0;labelBackgroundColor=none;sketch=0;fillStyle=auto;strokeColor=#000000;strokeWidth=0;fontSize=12;fontColor=#000000;fillColor=#000000;gradientColor=none;" vertex="1" parent="1">
                    <mxGeometry x="-10" width="20" height="1100" as="geometry"/>
                </mxCell>
                <mxCell id="44" value="" style="rounded=0;whiteSpace=wrap;html=1;shadow=0;glass=0;labelBackgroundColor=none;sketch=0;fillStyle=auto;strokeColor=#000000;strokeWidth=0;fontSize=12;fontColor=#F9FFA1;fillColor=none;gradientColor=none;container=0;movable=1;resizable=1;rotatable=1;deletable=1;editable=1;connectable=1;" vertex="1" parent="1">
                    <mxGeometry x="-770" y="1060" width="760" height="20" as="geometry">
                        <mxRectangle x="40" y="1060" width="50" height="40" as="alternateBounds"/>
                    </mxGeometry>
                </mxCell>
                <mxCell id="45" value="&lt;font color=&quot;#b3b3b3&quot;&gt;2024 Will Standley&lt;/font&gt;" style="text;html=1;strokeColor=none;fillColor=none;align=center;verticalAlign=middle;whiteSpace=wrap;rounded=0;shadow=0;glass=0;labelBackgroundColor=none;sketch=0;fillStyle=auto;strokeWidth=0;fontSize=12;fontColor=#F9FFA1;movable=1;resizable=1;rotatable=1;deletable=1;editable=1;connectable=1;direction=west;flipH=0;flipV=1;" vertex="1" parent="1">
                    <mxGeometry x="-485" y="1065" width="120" height="15" as="geometry"/>
                </mxCell>
                <mxCell id="47" value="" style="rounded=0;whiteSpace=wrap;html=1;shadow=0;glass=0;labelBackgroundColor=none;sketch=0;fillStyle=auto;strokeColor=#000000;strokeWidth=0;fontSize=12;fontColor=#000000;fillColor=#000000;gradientColor=none;" vertex="1" parent="1">
                    <mxGeometry x="840" width="10" height="1100" as="geometry"/>
                </mxCell>
                <mxCell id="48" value="" style="rounded=0;whiteSpace=wrap;html=1;shadow=0;glass=0;labelBackgroundColor=none;sketch=0;fillStyle=auto;strokeColor=#000000;strokeWidth=0;fontSize=12;fontColor=#000000;fillColor=#000000;gradientColor=none;" vertex="1" parent="1">
                    <mxGeometry x="-850" width="10" height="1100" as="geometry"/>
                </mxCell>
                <mxCell id="54" value="" style="swimlane;startSize=0;rounded=1;shadow=0;glass=0;labelBackgroundColor=none;sketch=0;fillStyle=auto;strokeColor=#000000;strokeWidth=0;fontSize=15;fontColor=#000000;fillColor=#000000;gradientColor=none;movable=0;resizable=0;rotatable=0;deletable=0;editable=0;connectable=0;" vertex="1" parent="1">
                    <mxGeometry x="610" y="240" width="180" height="310" as="geometry"/>
                </mxCell>
                <mxCell id="56" value="&lt;font style=&quot;font-size: 12px;&quot;&gt;2.) Song Name&lt;/font&gt;" style="text;html=1;strokeColor=none;fillColor=none;align=left;verticalAlign=middle;whiteSpace=wrap;rounded=0;shadow=0;glass=0;labelBackgroundColor=none;sketch=0;fillStyle=auto;strokeWidth=0;fontSize=15;fontColor=#000000;movable=0;resizable=0;rotatable=0;deletable=0;editable=0;connectable=0;" vertex="1" parent="54">
                    <mxGeometry x="10" y="40" width="160" height="20" as="geometry"/>
                </mxCell>
                <mxCell id="57" value="&lt;font style=&quot;font-size: 12px;&quot;&gt;3.) Song Name&lt;/font&gt;" style="text;html=1;strokeColor=none;fillColor=none;align=left;verticalAlign=middle;whiteSpace=wrap;rounded=0;shadow=0;glass=0;labelBackgroundColor=none;sketch=0;fillStyle=auto;strokeWidth=0;fontSize=15;fontColor=#000000;movable=0;resizable=0;rotatable=0;deletable=0;editable=0;connectable=0;" vertex="1" parent="54">
                    <mxGeometry x="10" y="70" width="160" height="20" as="geometry"/>
                </mxCell>
                <mxCell id="58" value="&lt;font style=&quot;font-size: 12px;&quot;&gt;4.) Song Name&lt;/font&gt;" style="text;html=1;strokeColor=none;fillColor=none;align=left;verticalAlign=middle;whiteSpace=wrap;rounded=0;shadow=0;glass=0;labelBackgroundColor=none;sketch=0;fillStyle=auto;strokeWidth=0;fontSize=15;fontColor=#000000;movable=0;resizable=0;rotatable=0;deletable=0;editable=0;connectable=0;" vertex="1" parent="54">
                    <mxGeometry x="10" y="100" width="160" height="20" as="geometry"/>
                </mxCell>
                <mxCell id="59" value="&lt;span style=&quot;font-size: 12px;&quot;&gt;5.) Song Name&lt;/span&gt;" style="text;html=1;strokeColor=none;fillColor=none;align=left;verticalAlign=middle;whiteSpace=wrap;rounded=0;shadow=0;glass=0;labelBackgroundColor=none;sketch=0;fillStyle=auto;strokeWidth=0;fontSize=15;fontColor=#000000;movable=0;resizable=0;rotatable=0;deletable=0;editable=0;connectable=0;" vertex="1" parent="54">
                    <mxGeometry x="10" y="130" width="160" height="20" as="geometry"/>
                </mxCell>
                <mxCell id="61" value="&lt;span style=&quot;font-size: 12px;&quot;&gt;7.) Song Name&lt;/span&gt;" style="text;html=1;strokeColor=none;fillColor=none;align=left;verticalAlign=middle;whiteSpace=wrap;rounded=0;shadow=0;glass=0;labelBackgroundColor=none;sketch=0;fillStyle=auto;strokeWidth=0;fontSize=15;fontColor=#000000;movable=0;resizable=0;rotatable=0;deletable=0;editable=0;connectable=0;" vertex="1" parent="54">
                    <mxGeometry x="10" y="190" width="160" height="20" as="geometry"/>
                </mxCell>
                <mxCell id="62" value="&lt;span style=&quot;font-size: 12px;&quot;&gt;8.) Song Name&lt;/span&gt;" style="text;html=1;strokeColor=none;fillColor=none;align=left;verticalAlign=middle;whiteSpace=wrap;rounded=0;shadow=0;glass=0;labelBackgroundColor=none;sketch=0;fillStyle=auto;strokeWidth=0;fontSize=15;fontColor=#000000;movable=0;resizable=0;rotatable=0;deletable=0;editable=0;connectable=0;" vertex="1" parent="54">
                    <mxGeometry x="10" y="220" width="160" height="20" as="geometry"/>
                </mxCell>
                <mxCell id="64" value="&lt;span style=&quot;font-size: 12px;&quot;&gt;10.) Song Name&lt;/span&gt;" style="text;html=1;strokeColor=none;fillColor=none;align=left;verticalAlign=middle;whiteSpace=wrap;rounded=0;shadow=0;glass=0;labelBackgroundColor=none;sketch=0;fillStyle=auto;strokeWidth=0;fontSize=15;fontColor=#000000;movable=0;resizable=0;rotatable=0;deletable=0;editable=0;connectable=0;" vertex="1" parent="54">
                    <mxGeometry x="10" y="280" width="160" height="20" as="geometry"/>
                </mxCell>
                <mxCell id="63" value="&lt;span style=&quot;font-size: 12px;&quot;&gt;9.) Song Name&lt;/span&gt;" style="text;html=1;strokeColor=none;fillColor=none;align=left;verticalAlign=middle;whiteSpace=wrap;rounded=0;shadow=0;glass=0;labelBackgroundColor=none;sketch=0;fillStyle=auto;strokeWidth=0;fontSize=15;fontColor=#000000;movable=0;resizable=0;rotatable=0;deletable=0;editable=0;connectable=0;" vertex="1" parent="54">
                    <mxGeometry x="10" y="250" width="160" height="20" as="geometry"/>
                </mxCell>
                <mxCell id="60" value="&lt;span style=&quot;font-size: 12px;&quot;&gt;6.) Song Name&lt;/span&gt;" style="text;html=1;strokeColor=none;fillColor=none;align=left;verticalAlign=middle;whiteSpace=wrap;rounded=0;shadow=0;glass=0;labelBackgroundColor=none;sketch=0;fillStyle=auto;strokeWidth=0;fontSize=15;fontColor=#000000;movable=0;resizable=0;rotatable=0;deletable=0;editable=0;connectable=0;" vertex="1" parent="54">
                    <mxGeometry x="10" y="160" width="160" height="20" as="geometry"/>
                </mxCell>
                <mxCell id="55" value="&lt;font style=&quot;font-size: 12px;&quot;&gt;1.) Song Name&lt;/font&gt;" style="text;html=1;strokeColor=none;fillColor=none;align=left;verticalAlign=middle;whiteSpace=wrap;rounded=0;shadow=0;glass=0;labelBackgroundColor=none;sketch=0;fillStyle=auto;strokeWidth=0;fontSize=15;fontColor=#000000;movable=0;resizable=0;rotatable=0;deletable=0;editable=0;connectable=0;" vertex="1" parent="54">
                    <mxGeometry x="10" y="10" width="160" height="20" as="geometry"/>
                </mxCell>
                <mxCell id="49" value="&lt;u&gt;&lt;b&gt;&lt;font style=&quot;font-size: 18px;&quot;&gt;Top Songs&lt;/font&gt;&lt;/b&gt;&lt;/u&gt;" style="text;html=1;strokeColor=none;fillColor=none;align=center;verticalAlign=middle;whiteSpace=wrap;rounded=0;shadow=0;glass=0;labelBackgroundColor=none;sketch=0;fillStyle=auto;strokeWidth=0;fontSize=12;fontColor=#000000;movable=0;resizable=0;rotatable=0;deletable=0;editable=0;connectable=0;" vertex="1" parent="1">
                    <mxGeometry x="610" y="205" width="180" height="30" as="geometry"/>
                </mxCell>
            </root>
        </mxGraphModel>
    </diagram>
</mxfile>